<?xml version="1.0" standalone="no"?>
<!DOCTYPE svg PUBLIC "-//W3C//DTD SVG 20010904//EN"
 "http://www.w3.org/TR/2001/REC-SVG-20010904/DTD/svg10.dtd">
<svg version="1.0" xmlns="http://www.w3.org/2000/svg"
 width="258.000000pt" height="280.000000pt" viewBox="0 0 258.000000 280.000000"
 preserveAspectRatio="xMidYMid meet">

<g transform="translate(0.000000,280.000000) scale(0.100000,-0.100000)"
fill="#000000" stroke="none">
<path d="M511 1900 c-73 -18 -131 -87 -131 -157 0 -60 30 -113 96 -170 63 -54
84 -88 84 -133 0 -62 -92 -117 -158 -94 -34 12 -31 27 7 36 71 19 94 107 42
159 -43 42 -92 40 -138 -6 -19 -19 -40 -32 -45 -29 -14 9 -28 -16 -28 -51 0
-35 24 -75 45 -75 8 0 25 -14 37 -31 41 -56 129 -86 202 -69 81 18 136 84 136
162 0 65 -15 90 -99 173 -84 81 -111 137 -91 184 25 61 106 81 154 39 37 -34
42 -70 14 -102 -21 -24 -26 -25 -58 -16 -52 15 -60 13 -60 -18 0 -43 42 -77
95 -77 110 0 162 128 88 215 -44 53 -121 77 -192 60z m-105 -395 c10 -24 -15
-45 -52 -45 -37 0 -43 13 -17 42 20 22 61 24 69 3z"/>
<path d="M1573 1863 c-10 -4 -10 -10 2 -26 8 -12 15 -32 15 -44 0 -35 -71
-346 -83 -360 -5 -7 -18 -13 -28 -13 -18 0 -17 4 6 67 23 60 24 68 10 84 -9 9
-26 19 -39 21 -20 4 -24 -1 -34 -48 -13 -63 -37 -103 -70 -115 -34 -13 -52 5
-52 51 0 71 76 134 153 128 49 -3 59 15 28 53 -15 19 -29 24 -64 24 -82 0
-166 -82 -182 -177 -9 -50 -72 -108 -118 -108 -40 0 -57 15 -57 52 0 25 3 28
35 28 85 0 138 48 133 121 -7 91 -93 104 -172 25 -66 -65 -83 -166 -39 -232
29 -45 106 -38 180 15 l40 29 22 -29 c27 -37 68 -38 109 -4 36 30 38 30 45 5
6 -24 62 -28 92 -6 17 12 22 12 39 0 11 -8 28 -14 38 -14 14 0 16 6 12 30 -4
16 -4 41 0 54 6 23 9 24 30 14 14 -6 27 -22 31 -35 10 -40 97 -121 139 -129
61 -11 118 1 143 31 13 14 23 32 23 39 0 8 11 17 25 20 56 14 115 85 139 170
12 42 36 56 64 38 11 -7 10 -21 -4 -75 -24 -89 -14 -121 39 -125 24 -2 48 3
64 13 33 22 68 105 44 105 -5 0 -11 -13 -14 -29 -6 -29 -31 -61 -48 -61 -22 0
-20 35 6 105 16 45 24 82 20 95 -8 26 -43 40 -99 40 -42 0 -42 1 -38 30 4 30
-19 80 -38 80 -20 0 -50 -41 -50 -66 0 -15 9 -42 21 -60 19 -31 19 -38 8 -89
-15 -68 -58 -121 -114 -140 -47 -15 -72 -6 -81 30 -9 35 0 42 57 47 62 6 106
45 116 101 5 31 1 40 -25 67 -36 35 -51 37 -108 10 -64 -31 -98 -87 -102 -169
-4 -60 -1 -70 22 -98 30 -36 26 -43 -26 -43 -46 0 -94 19 -128 51 l-24 24 34
9 c101 29 147 171 69 215 -32 18 -67 9 -108 -25 l-30 -25 19 57 c27 79 27 138
-2 158 -22 15 -69 20 -95 9z m445 -250 c4 -29 -39 -73 -73 -73 -29 0 -31 10
-10 50 27 51 77 65 83 23z m-263 -3 c8 -25 -18 -75 -51 -96 -13 -9 -26 -15
-27 -13 -1 2 -10 19 -20 38 l-18 34 27 29 c33 34 79 38 89 8z m-584 -22 c4
-43 -35 -88 -77 -88 -27 0 -28 3 -13 33 28 54 87 90 90 55z m464 -68 c3 -5 1
-10 -4 -10 -6 0 -11 5 -11 10 0 6 2 10 4 10 3 0 8 -4 11 -10z"/>
<path d="M749 1653 c-1 -5 -1 -12 0 -16 1 -4 -8 -59 -20 -122 -21 -111 -21
-116 -4 -135 24 -26 81 -28 70 -2 -16 39 -15 51 17 111 32 63 80 112 95 97 4
-4 -3 -46 -15 -94 -12 -48 -22 -92 -22 -99 0 -22 31 -43 64 -43 42 0 47 6 34
36 -9 19 -7 47 6 119 10 52 15 106 12 120 -10 37 -53 33 -103 -10 l-41 -35 -6
30 c-4 20 -14 34 -31 40 -31 12 -55 13 -56 3z"/>
<path d="M1635 1248 c-314 -13 -1161 -100 -1150 -119 3 -4 25 -14 49 -22 41
-14 62 -13 288 14 552 66 870 95 1161 105 198 7 268 23 115 26 -212 4 -276 3
-463 -4z"/>
<path d="M1072 90 c0 -25 2 -39 5 -32 4 10 8 10 21 0 13 -11 14 -10 4 8 -6 12
-8 25 -4 29 4 5 2 5 -5 1 -7 -4 -13 2 -16 16 -2 13 -5 3 -5 -22z"/>
<path d="M1446 121 c-4 -5 3 -7 14 -4 26 7 25 -7 -1 -41 l-20 -26 28 1 c16 1
21 3 11 6 -16 4 -16 6 -2 28 9 13 13 29 9 35 -8 12 -32 13 -39 1z"/>
<path d="M1515 120 c-3 -6 1 -7 9 -4 23 9 20 -16 -6 -43 l-21 -23 29 1 c18 1
22 3 11 6 -17 4 -18 6 -2 24 10 10 15 25 12 34 -7 17 -23 20 -32 5z"/>
<path d="M1574 115 c-4 -8 -1 -22 6 -30 6 -8 9 -19 5 -25 -3 -5 -4 -10 -1 -10
10 0 33 55 29 68 -6 17 -32 15 -39 -3z m28 -10 c0 -5 -5 -11 -11 -13 -6 -2
-11 4 -11 13 0 9 5 15 11 13 6 -2 11 -8 11 -13z"/>
<path d="M1644 105 c-18 -28 -13 -55 11 -55 21 0 30 27 15 45 -6 8 -9 19 -5
25 14 22 -5 9 -21 -15z m26 -30 c0 -8 -7 -15 -15 -15 -8 0 -15 7 -15 15 0 8 7
15 15 15 8 0 15 -7 15 -15z"/>
<path d="M1700 110 c0 -11 7 -20 15 -20 21 0 19 -28 -2 -33 -17 -4 -17 -5 0
-6 25 -1 34 29 14 44 -22 16 -21 22 1 28 13 4 11 5 -5 6 -17 1 -23 -5 -23 -19z"/>
<path d="M1770 120 c0 -5 7 -7 15 -4 8 4 15 8 15 10 0 2 -7 4 -15 4 -8 0 -15
-4 -15 -10z"/>
<path d="M1838 123 c26 -5 26 -6 7 -43 -9 -17 -13 -30 -11 -30 7 0 36 56 36
70 0 5 -12 9 -27 9 -24 -2 -25 -2 -5 -6z"/>
<path d="M1897 123 c-12 -12 -7 -33 7 -33 26 0 28 -20 4 -29 -14 -6 -17 -10
-7 -10 8 -1 20 4 26 10 14 14 6 39 -13 39 -20 0 -17 18 4 23 14 4 14 5 1 6 -9
0 -19 -2 -22 -6z"/>
<path d="M1956 121 c-4 -5 3 -7 14 -4 26 7 25 -7 -1 -41 l-20 -26 28 1 c16 1
21 3 11 6 -16 4 -16 6 -2 28 9 13 13 29 9 35 -8 12 -32 13 -39 1z"/>
<path d="M2028 123 c26 -5 26 -6 7 -43 -9 -17 -13 -30 -10 -30 2 0 14 18 25
40 l20 40 -32 -1 c-24 -1 -27 -3 -10 -6z"/>
<path d="M572 100 c0 -14 2 -19 5 -12 2 6 2 18 0 25 -3 6 -5 1 -5 -13z"/>
<path d="M690 86 c0 -28 4 -36 18 -36 13 0 14 2 3 9 -8 5 -12 18 -8 30 3 12 1
24 -4 27 -5 3 -9 -11 -9 -30z"/>
<path d="M730 86 c0 -28 4 -36 18 -36 13 0 14 2 3 9 -8 5 -12 18 -8 30 3 12 1
24 -4 27 -5 3 -9 -11 -9 -30z"/>
<path d="M918 115 c-7 -7 3 -65 11 -65 4 0 5 16 3 35 -4 36 -5 38 -14 30z"/>
<path d="M525 100 c-4 -6 -2 -17 5 -24 8 -11 8 -15 -2 -19 -8 -4 -7 -6 5 -6 9
-1 17 6 17 14 0 8 -5 15 -11 15 -6 0 -9 7 -5 15 6 17 0 20 -9 5z"/>
<path d="M599 78 c4 -28 6 -29 9 -9 2 13 0 27 -5 32 -6 6 -7 -3 -4 -23z"/>
<path d="M796 97 c3 -10 9 -15 12 -12 3 3 0 11 -7 18 -10 9 -11 8 -5 -6z"/>
<path d="M960 95 c-7 -8 -9 -22 -6 -31 8 -22 41 -13 42 11 1 15 0 16 -3 3 -5
-21 -33 -24 -33 -5 0 7 5 18 12 25 7 7 9 12 6 12 -3 0 -11 -7 -18 -15z"/>
<path d="M1210 95 c-7 -8 -9 -22 -6 -31 8 -22 41 -13 42 11 1 15 0 16 -3 3 -5
-21 -33 -24 -33 -5 0 7 5 18 12 25 7 7 9 12 6 12 -3 0 -11 -7 -18 -15z"/>
<path d="M1329 78 c4 -28 6 -29 9 -9 2 13 0 27 -5 32 -6 6 -7 -3 -4 -23z"/>
<path d="M631 78 c-1 -22 4 -28 19 -28 15 0 20 6 19 28 -2 23 -2 24 -6 5 -2
-13 -8 -23 -13 -23 -5 0 -11 10 -13 23 -4 19 -4 18 -6 -5z"/>
<path d="M774 75 c1 -12 9 -21 21 -22 14 -1 15 0 3 3 -9 3 -19 13 -21 22 -3
12 -4 11 -3 -3z"/>
<path d="M832 75 c0 -16 2 -22 5 -12 2 9 2 23 0 30 -3 6 -5 -1 -5 -18z"/>
<path d="M860 91 c0 -5 8 -12 17 -15 15 -6 15 -8 3 -17 -13 -9 -13 -10 -1 -7
23 6 23 22 1 36 -11 7 -20 8 -20 3z"/>
<path d="M1016 91 c-10 -15 5 -41 22 -41 13 0 13 2 -3 13 -10 8 -15 19 -11 25
4 7 5 12 2 12 -3 0 -7 -4 -10 -9z"/>
<path d="M1154 75 c1 -12 9 -21 21 -22 14 -1 15 0 3 3 -9 3 -19 13 -21 22 -3
12 -4 11 -3 -3z"/>
<path d="M1298 75 c6 -32 12 -32 12 0 0 14 -4 25 -9 25 -4 0 -6 -11 -3 -25z"/>
<path d="M1778 93 c27 -6 29 -30 2 -36 -17 -4 -16 -4 2 -3 34 2 32 40 -2 43
-22 1 -22 1 -2 -4z"/>
</g>
</svg>
